<svg width="34" height="29" viewBox="0 0 34 29" fill="none" xmlns="http://www.w3.org/2000/svg">
<g clip-path="url(#clip0_39_5)">
<path d="M28.014 11.4091L26.1781 11.4091C25.6369 9.88502 24.6832 8.54115 23.4233 7.52713C22.1634 6.51311 20.6467 5.86876 19.0422 5.66583C17.4377 5.46291 15.8083 5.70938 14.3356 6.3778C12.863 7.04622 11.6047 8.11035 10.7011 9.45165C10.5366 9.70174 10.4431 9.99178 10.4305 10.2908C10.4179 10.5899 10.4867 10.8868 10.6296 11.1498C10.7725 11.4128 10.9842 11.6321 11.2419 11.7843C11.4997 11.9365 11.7939 12.0159 12.0932 12.014L14.3121 12.014L14.3121 16.7107L12.1302 16.7107C11.8292 16.7094 11.5335 16.7901 11.275 16.9442C11.0164 17.0983 10.8047 17.3199 10.6626 17.5853C10.5206 17.8506 10.4535 18.1497 10.4687 18.4503C10.4838 18.751 10.5806 19.0418 10.7487 19.2915C11.6583 20.6137 12.9148 21.6596 14.38 22.3144C15.8452 22.9693 17.4625 23.2077 19.0543 23.0035C20.6461 22.7994 22.1509 22.1605 23.4034 21.1571C24.656 20.1537 25.6078 18.8245 26.1543 17.3156L28.0034 17.3156C27.3605 19.4831 26.0343 21.3848 24.2225 22.7372C22.4107 24.0896 20.2104 24.8203 17.9496 24.8203C12.2385 24.8203 4.72588 19.3892 0.961643 16.3435C0.662848 16.1 0.422016 15.793 0.256619 15.4449C0.0912191 15.0967 0.00540364 14.7161 0.00540364 14.3306C0.00540365 13.9452 0.0912191 13.5646 0.256619 13.2164C0.422016 12.8682 0.662848 12.5613 0.961643 12.3178C4.69947 9.27203 12.1593 3.85152 17.9575 3.85152C20.2257 3.85392 22.4319 4.59182 24.2451 5.95447C26.0584 7.31713 27.3808 9.23106 28.014 11.4091Z" fill="#FF5400"/>
<path d="M2.65219 13.25C2.41615 13.3251 2.2101 13.4733 2.06384 13.6732C1.91758 13.8731 1.8387 14.1144 1.83859 14.3621C1.8387 14.6098 1.91758 14.851 2.06384 15.051C2.2101 15.2509 2.41615 15.3991 2.65219 15.4742L4.31902 16.7104L28.3943 16.7104C29.1444 16.7105 29.8919 16.6219 30.6211 16.4463C31.3373 16.2687 32.0286 16.0025 32.6789 15.6538C32.9283 15.5409 33.1398 15.3585 33.2881 15.1285C33.4365 14.8984 33.5154 14.6305 33.5154 14.3568C33.5154 14.0831 33.4365 13.8152 33.2881 13.5851C33.1398 13.3551 32.9283 13.1727 32.6789 13.0598C32.0286 12.7112 31.3373 12.4449 30.6211 12.2673C29.8919 12.0918 29.1444 12.0031 28.3943 12.0032L4.31902 12.0032L2.65219 13.25Z" fill="#FF5400"/>
<path d="M24.9708 12.6638L15.8759 0.745052C15.6982 0.513177 15.4694 0.325359 15.2074 0.196173C14.9453 0.0669869 14.6571 -9.54904e-05 14.3649 0.000126712L13.4536 0.000126701L17.2971 12.6638L24.9708 12.6638Z" fill="#FF5400"/>
<path d="M24.9708 16.0607L15.8759 27.9794C15.6982 28.2113 15.4694 28.3991 15.2074 28.5283C14.9453 28.6575 14.6571 28.7246 14.3649 28.7244L13.4536 28.7244L17.2971 16.0607L24.9708 16.0607Z" fill="#FF5400"/>
<path d="M15.0307 26.5821C15.03 26.3702 15.1127 26.1666 15.261 26.0153C15.4094 25.864 15.6113 25.7772 15.8232 25.7737L17.2971 25.7737C17.5115 25.7737 17.7171 25.8589 17.8687 26.0105C18.0203 26.1621 18.1055 26.3677 18.1055 26.5821C18.1055 26.7964 18.0203 27.002 17.8687 27.1536C17.7171 27.3052 17.5115 27.3904 17.2971 27.3904L15.8232 27.3904C15.6113 27.3869 15.4094 27.3001 15.261 27.1488C15.1127 26.9976 15.03 26.7939 15.0307 26.5821Z" fill="#FF5400"/>
<path d="M15.0307 2.14236C15.03 1.9305 15.1127 1.72687 15.261 1.57558C15.4094 1.42429 15.6113 1.33752 15.8232 1.33404L17.2971 1.33404C17.5115 1.33404 17.7171 1.41921 17.8687 1.5708C18.0203 1.72239 18.1055 1.92798 18.1055 2.14236C18.1055 2.35674 18.0203 2.56235 17.8687 2.71394C17.7171 2.86552 17.5115 2.95068 17.2971 2.95068L15.8232 2.95068C15.6113 2.94721 15.4094 2.86044 15.261 2.70915C15.1127 2.55786 15.03 2.35423 15.0307 2.14236Z" fill="#FF5400"/>
<path d="M20.216 19.6744C20.2143 19.5671 20.2339 19.4606 20.2737 19.361C20.3136 19.2614 20.3728 19.1707 20.448 19.0942C20.5233 19.0178 20.613 18.9571 20.7119 18.9156C20.8109 18.8742 20.9171 18.8528 21.0243 18.8528L22.4957 18.8528C22.7101 18.8528 22.9157 18.938 23.0673 19.0896C23.2189 19.2412 23.304 19.4468 23.304 19.6612C23.304 19.8755 23.2189 20.0811 23.0673 20.2327C22.9157 20.3843 22.7101 20.4695 22.4957 20.4695L21.0243 20.4695C20.8122 20.4695 20.6086 20.3862 20.4574 20.2374C20.3062 20.0887 20.2195 19.8864 20.216 19.6744Z" fill="#FF5400"/>
<path d="M20.216 9.04983C20.216 8.83545 20.3012 8.62985 20.4528 8.47826C20.6044 8.32667 20.81 8.24151 21.0243 8.24151L22.4957 8.24151C22.7101 8.24151 22.9157 8.32667 23.0673 8.47826C23.2189 8.62985 23.304 8.83545 23.304 9.04983C23.304 9.26421 23.2189 9.46981 23.0673 9.6214C22.9157 9.77299 22.7101 9.85815 22.4957 9.85815L21.0243 9.85815C20.81 9.85815 20.6044 9.77299 20.4528 9.6214C20.3012 9.46981 20.216 9.26421 20.216 9.04983Z" fill="#FF5400"/>
</g>
<defs>
<clipPath id="clip0_39_5">
<rect width="28.7244" height="33.5163" fill="white" transform="matrix(1.19249e-08 -1 -1 -1.19249e-08 33.5164 28.7244)"/>
</clipPath>
</defs>
</svg>
